<mxfile host="app.diagrams.net" modified="2021-02-04T09:11:26.434Z" agent="5.0 (Macintosh; Intel Mac OS X 10_15_7) AppleWebKit/537.36 (KHTML, like Gecko) Chrome/88.0.4324.96 Safari/537.36" etag="fK_g9o3vro93_j6avWE4" version="14.2.9" type="github">
  <diagram name="Page-1" id="e7e014a7-5840-1c2e-5031-d8a46d1fe8dd">
    <mxGraphModel dx="1113" dy="760" grid="1" gridSize="10" guides="1" tooltips="1" connect="1" arrows="1" fold="1" page="1" pageScale="1" pageWidth="1169" pageHeight="826" background="#ffffff" math="0" shadow="0">
      <root>
        <mxCell id="0" />
        <mxCell id="1" parent="0" />
        <mxCell id="2" value="アクター" style="swimlane;whiteSpace=wrap" parent="1" vertex="1">
          <mxGeometry x="164.5" y="128" width="280" height="652" as="geometry" />
        </mxCell>
        <mxCell id="K6RX778UUvLjA_u8IFyw-45" value="ユーザー" style="shape=umlActor;verticalLabelPosition=bottom;verticalAlign=top;html=1;" vertex="1" parent="2">
          <mxGeometry x="125" y="255" width="30" height="60" as="geometry" />
        </mxCell>
        <mxCell id="3" value="ユースケース" style="swimlane;whiteSpace=wrap" parent="1" vertex="1">
          <mxGeometry x="444.5" y="128" width="280" height="652" as="geometry" />
        </mxCell>
        <mxCell id="K6RX778UUvLjA_u8IFyw-54" value="サインアップする" style="ellipse;whiteSpace=wrap;html=1;" vertex="1" parent="3">
          <mxGeometry x="65.5" y="62" width="140" height="70" as="geometry" />
        </mxCell>
        <mxCell id="K6RX778UUvLjA_u8IFyw-55" value="ログインする" style="ellipse;whiteSpace=wrap;html=1;" vertex="1" parent="3">
          <mxGeometry x="65.5" y="162" width="140" height="70" as="geometry" />
        </mxCell>
        <mxCell id="K6RX778UUvLjA_u8IFyw-56" value="問題集を作成する" style="ellipse;whiteSpace=wrap;html=1;" vertex="1" parent="3">
          <mxGeometry x="65.5" y="552" width="140" height="70" as="geometry" />
        </mxCell>
        <mxCell id="K6RX778UUvLjA_u8IFyw-53" value="問題を投稿する" style="ellipse;whiteSpace=wrap;html=1;" vertex="1" parent="3">
          <mxGeometry x="65.5" y="255" width="140" height="70" as="geometry" />
        </mxCell>
        <mxCell id="K6RX778UUvLjA_u8IFyw-57" value="問題集に問題を登録する" style="ellipse;whiteSpace=wrap;html=1;" vertex="1" parent="3">
          <mxGeometry x="65.5" y="452" width="140" height="70" as="geometry" />
        </mxCell>
        <mxCell id="K6RX778UUvLjA_u8IFyw-88" value="問題にコメントする" style="ellipse;whiteSpace=wrap;html=1;" vertex="1" parent="3">
          <mxGeometry x="65.5" y="352" width="140" height="70" as="geometry" />
        </mxCell>
        <mxCell id="4" value="サブジェクト" style="swimlane;whiteSpace=wrap" parent="1" vertex="1">
          <mxGeometry x="724.5" y="128" width="280" height="652" as="geometry" />
        </mxCell>
        <mxCell id="K6RX778UUvLjA_u8IFyw-59" value="Quiz" style="shape=umlActor;verticalLabelPosition=bottom;verticalAlign=top;html=1;" vertex="1" parent="4">
          <mxGeometry x="125.5" y="325" width="30" height="60" as="geometry" />
        </mxCell>
        <mxCell id="K6RX778UUvLjA_u8IFyw-58" value="User" style="shape=umlActor;verticalLabelPosition=bottom;verticalAlign=top;html=1;" vertex="1" parent="4">
          <mxGeometry x="125.5" y="72" width="30" height="60" as="geometry" />
        </mxCell>
        <mxCell id="K6RX778UUvLjA_u8IFyw-60" value="Quiz_collection" style="shape=umlActor;verticalLabelPosition=bottom;verticalAlign=top;html=1;" vertex="1" parent="4">
          <mxGeometry x="125" y="442" width="30" height="60" as="geometry" />
        </mxCell>
        <mxCell id="K6RX778UUvLjA_u8IFyw-70" value="Session" style="shape=umlActor;verticalLabelPosition=bottom;verticalAlign=top;html=1;" vertex="1" parent="4">
          <mxGeometry x="125.5" y="192" width="30" height="60" as="geometry" />
        </mxCell>
        <mxCell id="K6RX778UUvLjA_u8IFyw-65" value="" style="endArrow=none;html=1;exitX=0.5;exitY=0.5;exitDx=0;exitDy=0;exitPerimeter=0;" edge="1" parent="1" source="K6RX778UUvLjA_u8IFyw-45" target="K6RX778UUvLjA_u8IFyw-54">
          <mxGeometry width="50" height="50" relative="1" as="geometry">
            <mxPoint x="340" y="350" as="sourcePoint" />
            <mxPoint x="390" y="300" as="targetPoint" />
          </mxGeometry>
        </mxCell>
        <mxCell id="K6RX778UUvLjA_u8IFyw-66" value="" style="endArrow=none;html=1;exitX=0.5;exitY=0.5;exitDx=0;exitDy=0;exitPerimeter=0;" edge="1" parent="1" source="K6RX778UUvLjA_u8IFyw-45" target="K6RX778UUvLjA_u8IFyw-53">
          <mxGeometry width="50" height="50" relative="1" as="geometry">
            <mxPoint x="380" y="480" as="sourcePoint" />
            <mxPoint x="430" y="430" as="targetPoint" />
          </mxGeometry>
        </mxCell>
        <mxCell id="K6RX778UUvLjA_u8IFyw-67" value="" style="endArrow=none;html=1;entryX=0.5;entryY=0.5;entryDx=0;entryDy=0;entryPerimeter=0;" edge="1" parent="1" source="K6RX778UUvLjA_u8IFyw-54" target="K6RX778UUvLjA_u8IFyw-58">
          <mxGeometry width="50" height="50" relative="1" as="geometry">
            <mxPoint x="740" y="260" as="sourcePoint" />
            <mxPoint x="790" y="210" as="targetPoint" />
          </mxGeometry>
        </mxCell>
        <mxCell id="K6RX778UUvLjA_u8IFyw-68" value="" style="endArrow=none;html=1;exitX=0.5;exitY=0.5;exitDx=0;exitDy=0;exitPerimeter=0;" edge="1" parent="1" source="K6RX778UUvLjA_u8IFyw-45" target="K6RX778UUvLjA_u8IFyw-55">
          <mxGeometry width="50" height="50" relative="1" as="geometry">
            <mxPoint x="314.5" y="423" as="sourcePoint" />
            <mxPoint x="548.6762366071039" y="263.2504273376891" as="targetPoint" />
          </mxGeometry>
        </mxCell>
        <mxCell id="K6RX778UUvLjA_u8IFyw-69" value="" style="endArrow=none;html=1;entryX=0.5;entryY=0.5;entryDx=0;entryDy=0;entryPerimeter=0;" edge="1" parent="1" source="K6RX778UUvLjA_u8IFyw-55" target="K6RX778UUvLjA_u8IFyw-70">
          <mxGeometry width="50" height="50" relative="1" as="geometry">
            <mxPoint x="314.5" y="423" as="sourcePoint" />
            <mxPoint x="790" y="325" as="targetPoint" />
          </mxGeometry>
        </mxCell>
        <mxCell id="K6RX778UUvLjA_u8IFyw-73" value="" style="endArrow=none;html=1;exitX=0.5;exitY=0.5;exitDx=0;exitDy=0;exitPerimeter=0;" edge="1" parent="1" source="K6RX778UUvLjA_u8IFyw-45" target="K6RX778UUvLjA_u8IFyw-57">
          <mxGeometry width="50" height="50" relative="1" as="geometry">
            <mxPoint x="310" y="410" as="sourcePoint" />
            <mxPoint x="531.0410019536996" y="353.8668793748161" as="targetPoint" />
          </mxGeometry>
        </mxCell>
        <mxCell id="K6RX778UUvLjA_u8IFyw-74" value="" style="endArrow=none;html=1;exitX=0.5;exitY=0.5;exitDx=0;exitDy=0;exitPerimeter=0;" edge="1" parent="1" source="K6RX778UUvLjA_u8IFyw-45" target="K6RX778UUvLjA_u8IFyw-56">
          <mxGeometry width="50" height="50" relative="1" as="geometry">
            <mxPoint x="324.5" y="433" as="sourcePoint" />
            <mxPoint x="541.0410019536996" y="363.8668793748161" as="targetPoint" />
          </mxGeometry>
        </mxCell>
        <mxCell id="K6RX778UUvLjA_u8IFyw-75" value="" style="endArrow=none;html=1;entryX=0.5;entryY=0.5;entryDx=0;entryDy=0;entryPerimeter=0;" edge="1" parent="1" source="K6RX778UUvLjA_u8IFyw-56" target="K6RX778UUvLjA_u8IFyw-60">
          <mxGeometry width="50" height="50" relative="1" as="geometry">
            <mxPoint x="650" y="423" as="sourcePoint" />
            <mxPoint x="855.5" y="423" as="targetPoint" />
          </mxGeometry>
        </mxCell>
        <mxCell id="K6RX778UUvLjA_u8IFyw-76" value="" style="endArrow=none;html=1;entryX=0.5;entryY=0.5;entryDx=0;entryDy=0;entryPerimeter=0;" edge="1" parent="1" source="K6RX778UUvLjA_u8IFyw-57" target="K6RX778UUvLjA_u8IFyw-60">
          <mxGeometry width="50" height="50" relative="1" as="geometry">
            <mxPoint x="680" y="540" as="sourcePoint" />
            <mxPoint x="885.5" y="540" as="targetPoint" />
          </mxGeometry>
        </mxCell>
        <mxCell id="K6RX778UUvLjA_u8IFyw-77" value="" style="endArrow=none;html=1;entryX=0.5;entryY=0.5;entryDx=0;entryDy=0;entryPerimeter=0;" edge="1" parent="1" source="K6RX778UUvLjA_u8IFyw-57" target="K6RX778UUvLjA_u8IFyw-59">
          <mxGeometry width="50" height="50" relative="1" as="geometry">
            <mxPoint x="650" y="530" as="sourcePoint" />
            <mxPoint x="855.5" y="530" as="targetPoint" />
          </mxGeometry>
        </mxCell>
        <mxCell id="K6RX778UUvLjA_u8IFyw-78" value="" style="endArrow=none;html=1;entryX=0.5;entryY=0.5;entryDx=0;entryDy=0;entryPerimeter=0;" edge="1" parent="1" source="K6RX778UUvLjA_u8IFyw-53" target="K6RX778UUvLjA_u8IFyw-59">
          <mxGeometry width="50" height="50" relative="1" as="geometry">
            <mxPoint x="650.1173653476696" y="542.9297405422874" as="sourcePoint" />
            <mxPoint x="875" y="610" as="targetPoint" />
          </mxGeometry>
        </mxCell>
        <mxCell id="K6RX778UUvLjA_u8IFyw-87" value="&lt;p style=&quot;margin: 0px ; margin-top: 4px ; text-align: center ; text-decoration: underline&quot;&gt;&lt;b&gt;サインアップ&lt;/b&gt;&lt;/p&gt;&lt;hr&gt;&lt;p style=&quot;margin: 0px ; margin-left: 8px&quot;&gt;&lt;/p&gt;&lt;span&gt;・概要：サインアップ処理でユーザーがUserDBにユーザー情報を登録すること&lt;/span&gt;&lt;br&gt;&lt;span&gt;・アクター：ユーザー&lt;/span&gt;&lt;br&gt;&lt;span&gt;・事前条件：登録メールアドレスが他ユーザーに登録されていない&lt;br&gt;&lt;/span&gt;&lt;span&gt;・事後条件：なし&lt;br&gt;・基本フロー：&lt;br&gt;&lt;ol&gt;&lt;li&gt;ユーザーがサインアップボタンを押す。&lt;/li&gt;&lt;li&gt;システムがサインアップページを表示する&lt;/li&gt;&lt;li&gt;ユーザーがユーザー情報（）を入力する&lt;/li&gt;&lt;li&gt;システムがログインページを表示する&lt;/li&gt;&lt;/ol&gt;&lt;/span&gt;&lt;p&gt;&lt;/p&gt;&lt;p style=&quot;margin: 0px ; margin-left: 8px&quot;&gt;&lt;br&gt;&lt;/p&gt;" style="verticalAlign=top;align=left;overflow=fill;fontSize=12;fontFamily=Helvetica;html=1;" vertex="1" parent="1">
          <mxGeometry x="1009" y="200" width="621" height="240" as="geometry" />
        </mxCell>
        <mxCell id="K6RX778UUvLjA_u8IFyw-89" value="" style="endArrow=none;html=1;exitX=0.5;exitY=0.5;exitDx=0;exitDy=0;exitPerimeter=0;" edge="1" parent="1" source="K6RX778UUvLjA_u8IFyw-45" target="K6RX778UUvLjA_u8IFyw-88">
          <mxGeometry width="50" height="50" relative="1" as="geometry">
            <mxPoint x="300" y="480" as="sourcePoint" />
            <mxPoint x="535.9721259085604" y="653.1142458562558" as="targetPoint" />
          </mxGeometry>
        </mxCell>
        <mxCell id="K6RX778UUvLjA_u8IFyw-90" value="" style="endArrow=none;html=1;entryX=0.5;entryY=0.5;entryDx=0;entryDy=0;entryPerimeter=0;" edge="1" parent="1" source="K6RX778UUvLjA_u8IFyw-88" target="K6RX778UUvLjA_u8IFyw-59">
          <mxGeometry width="50" height="50" relative="1" as="geometry">
            <mxPoint x="658.3197827358749" y="517.3775449013692" as="sourcePoint" />
            <mxPoint x="875" y="493" as="targetPoint" />
          </mxGeometry>
        </mxCell>
      </root>
    </mxGraphModel>
  </diagram>
</mxfile>
